<svg width="28" height="28" viewBox="0 0 28 28" fill="none" xmlns="http://www.w3.org/2000/svg">
<path d="M20.34 22.428C20.417 21.973 20.5 21.247 20.5 20.248C20.5 18.25 19.66 16.267 18.38 14.838C18.088 14.512 18.303 14 18.74 14H20.945C24.284 14 27 16.91 27 20.489C27 21.874 25.934 22.999 24.622 22.999H20.836C20.7641 22.9997 20.693 22.9847 20.6274 22.9552C20.5619 22.9257 20.5036 22.8822 20.4565 22.8279C20.4094 22.7736 20.3747 22.7097 20.3548 22.6407C20.3348 22.5716 20.3301 22.499 20.341 22.428H20.34ZM20 13C18.07 13 16.5 11.206 16.5 9C16.5 6.533 17.841 5 20 5C22.159 5 23.5 6.533 23.5 9C23.5 11.206 21.93 13 20 13ZM10.5 12C8.294 12 6.5 9.981 6.5 7.5C6.5 4.682 7.995 3 10.5 3C13.005 3 14.5 4.682 14.5 7.5C14.5 9.981 12.706 12 10.5 12ZM12.751 14C14.4078 14.0019 15.9962 14.6608 17.1677 15.8323C18.3392 17.0038 18.9981 18.5922 19 20.249V21.562C18.9995 22.2083 18.7426 22.8279 18.2857 23.285C17.8288 23.7421 17.2093 23.9992 16.563 24H4.438C3.79156 23.9995 3.17176 23.7424 2.71466 23.2853C2.25756 22.8282 2.00053 22.2084 2 21.562V20.249C2.00185 18.5922 2.66082 17.0038 3.83234 15.8323C5.00385 14.6608 6.59223 14.0019 8.249 14H12.751Z" fill="#B0B3B8"/>
</svg>
