<svg width="28" height="28" viewBox="0 0 28 28" fill="none" xmlns="http://www.w3.org/2000/svg">
<path d="M10.5 4.5C8.228 4.5 7.75 6.268 7.75 7.75C7.75 9.542 8.983 11 10.5 11C12.017 11 13.25 9.542 13.25 7.75C13.25 6.268 12.772 4.5 10.5 4.5ZM10.5 12.5C8.156 12.5 6.25 10.369 6.25 7.75C6.25 4.776 7.839 3 10.5 3C13.161 3 14.75 4.776 14.75 7.75C14.75 10.369 12.844 12.5 10.5 12.5ZM20 6.5C18.59 6.5 17.875 7.341 17.875 9C17.875 10.378 18.828 11.5 20 11.5C21.172 11.5 22.125 10.378 22.125 9C22.125 7.341 21.41 6.5 20 6.5ZM20 13C18.001 13 16.375 11.206 16.375 9C16.375 6.533 17.764 5 20 5C22.236 5 23.625 6.533 23.625 9C23.625 11.206 21.999 13 20 13ZM24.622 21C24.8569 20.9976 25.0813 20.9022 25.2459 20.7346C25.4105 20.567 25.5019 20.3409 25.5 20.106C25.5 17.566 23.457 15.5 20.945 15.5H19.085C18.442 15.5 17.82 15.648 17.241 15.913C18.3692 17.0745 19.0005 18.6298 19.001 20.249V21H24.622ZM17.5 21.562V20.249C17.4984 18.99 16.9976 17.783 16.1073 16.8927C15.217 16.0024 14.01 15.5016 12.751 15.5H8.25C6.9908 15.5013 5.78354 16.0021 4.89306 16.8924C4.00257 17.7826 3.50159 18.9898 3.5 20.249V21.562C3.5 22.08 3.921 22.5 4.437 22.5H16.562C17.079 22.5 17.5 22.08 17.5 21.562ZM20.945 14C24.285 14 27 16.739 27 20.106C27.0016 20.7386 26.7521 21.3461 26.3062 21.7949C25.8604 22.2438 25.2546 22.4974 24.622 22.5H18.812C18.6266 22.944 18.3141 23.3233 17.9138 23.5902C17.5135 23.8571 17.0431 23.9997 16.562 24H4.437C3.79074 23.9992 3.17119 23.7421 2.7143 23.285C2.25742 22.8279 2.00053 22.2083 2 21.562V20.249C2.00185 18.5921 2.66096 17.0035 3.83269 15.832C5.00442 14.6604 6.59306 14.0016 8.25 14H12.751C13.886 14.0004 14.9991 14.3124 15.969 14.902C16.9034 14.3178 17.982 14.0055 19.084 14H20.945Z" fill="#B0B3B8"/>
</svg>
