<svg width="28" height="28" viewBox="0 0 28 28" fill="none" xmlns="http://www.w3.org/2000/svg">
<path d="M17.5 23.979H21.25C21.386 23.979 21.5 23.864 21.5 23.729V13.979C21.5 13.427 21.949 12.979 22.5 12.979H24.33L14.017 4.046L3.67199 12.979H5.49999C6.05199 12.979 6.49999 13.427 6.49999 13.979V23.729C6.49999 23.864 6.61499 23.979 6.74999 23.979H10.5V17.729C10.5 17.04 11.061 16.479 11.75 16.479H16.25C16.939 16.479 17.5 17.04 17.5 17.729V23.979ZM21.25 25.479H17C16.448 25.479 16 25.031 16 24.479V18.327C16 18.135 15.844 17.979 15.652 17.979H12.348C12.156 17.979 12 18.135 12 18.327V24.479C12 25.031 11.552 25.479 11 25.479H6.74999C5.78399 25.479 4.99999 24.695 4.99999 23.729V14.479H3.06899C2.56699 14.479 2.07899 14.215 1.86799 13.759C1.62999 13.245 1.75699 12.658 2.17499 12.29L13.001 2.912C13.248 2.675 13.608 2.527 13.989 2.521C14.392 2.527 14.753 2.675 15.027 2.937L25.821 12.286C25.823 12.288 25.824 12.289 25.825 12.29C26.244 12.658 26.371 13.245 26.133 13.759C25.921 14.215 25.434 14.479 24.931 14.479H23V23.729C23 24.695 22.217 25.479 21.25 25.479Z" fill="#B0B3B8"/>
</svg>
