<svg width="20" height="20" viewBox="0 0 20 20" fill="none" xmlns="http://www.w3.org/2000/svg">
<path d="M10 1.45856C14.8286 1.45856 18.5714 4.9957 18.5714 9.77284C18.5714 14.55 14.8286 18.0871 10 18.0871C9.16184 18.0891 8.32722 17.9783 7.51858 17.7578C7.36666 17.7159 7.20489 17.7277 7.06072 17.7914L5.35715 18.5421C5.25434 18.5874 5.14199 18.6068 5.02996 18.5985C4.91792 18.5903 4.80962 18.5547 4.71456 18.4948C4.6195 18.4349 4.54059 18.3526 4.48475 18.2552C4.42891 18.1577 4.39785 18.048 4.39429 17.9357L4.34786 16.4114C4.34471 16.3186 4.3227 16.2275 4.28315 16.1435C4.24361 16.0595 4.18737 15.9844 4.11786 15.9228C3.25787 15.1481 2.57311 14.1987 2.10935 13.1381C1.64559 12.0776 1.4135 10.9303 1.42858 9.77284C1.42858 4.9957 5.17143 1.45856 10 1.45856ZM4.85286 12.2043C4.80193 12.285 4.78095 12.381 4.79359 12.4756C4.80624 12.5701 4.8517 12.6573 4.92205 12.7217C4.99239 12.7862 5.08315 12.8239 5.17847 12.8283C5.27379 12.8327 5.36762 12.8035 5.44358 12.7457L8.14786 10.6928C8.23723 10.6256 8.34603 10.5893 8.45786 10.5893C8.56969 10.5893 8.67849 10.6256 8.76786 10.6928L10.7679 12.1928C10.9099 12.2991 11.0725 12.3747 11.2452 12.4151C11.4179 12.4554 11.5972 12.4596 11.7716 12.4273C11.946 12.3951 12.1119 12.3271 12.2588 12.2276C12.4056 12.1281 12.5303 11.9993 12.625 11.8493L15.1429 7.85499C15.1938 7.7743 15.2148 7.67828 15.2021 7.5837C15.1895 7.48912 15.144 7.40198 15.0737 7.33751C15.0033 7.27304 14.9126 7.23532 14.8173 7.23094C14.7219 7.22656 14.6281 7.2558 14.5521 7.31356L11.8479 9.36641C11.7585 9.43364 11.6497 9.46999 11.5379 9.46999C11.426 9.46999 11.3172 9.43364 11.2279 9.36641L9.22786 7.86641C9.08579 7.7602 8.92327 7.68453 8.75052 7.64417C8.57778 7.60381 8.39856 7.59964 8.22413 7.63191C8.0497 7.66418 7.88383 7.7322 7.73696 7.83168C7.59009 7.93117 7.46539 8.05997 7.37072 8.20999L4.85286 12.2043Z" fill="#B0B3B8"/>
</svg>
