<svg width="20" height="20" viewBox="0 0 20 20" fill="none" xmlns="http://www.w3.org/2000/svg">
<path d="M5.60499 16.7771C6.57642 16.7771 8.17357 16.6878 10.3336 16.29C9.95999 17.3057 8.98642 18.0335 7.84285 18.0335C6.89214 18.0335 6.05928 17.53 5.58928 16.7771H5.60499ZM17.8021 11.2357C17.9786 12.1443 17.3414 12.9478 15.9071 13.6257C15.1214 13.9964 13.3743 14.7021 10.4886 15.2635C8.26285 15.6957 6.63214 15.795 5.60571 15.795C5.30071 15.795 5.04856 15.7864 4.84999 15.775C3.26714 15.6843 2.37428 15.1771 2.19785 14.2685C1.92999 12.8921 2.35356 12.3607 3.05571 11.4807L3.24071 11.2485C3.71428 10.6478 3.89928 10.0578 3.59642 8.5014C2.91856 5.01569 4.48857 2.63355 7.90285 1.9664C11.3186 1.30712 13.6671 2.92569 14.345 6.41212C14.6471 7.96855 15.04 8.44569 15.7043 8.82497V8.82569L15.9629 8.97212C16.9429 9.52497 17.5343 9.85855 17.8021 11.2357Z" fill="#B0B3B8"/>
</svg>
