<svg width="28" height="28" viewBox="0 0 28 28" fill="none" xmlns="http://www.w3.org/2000/svg">
<path d="M8.75 25.25C8.336 25.25 8 24.914 8 24.5C8 24.086 8.336 23.75 8.75 23.75H19.25C19.664 23.75 20 24.086 20 24.5C20 24.914 19.664 25.25 19.25 25.25H8.75ZM17.164 12.846L12.055 15.923C11.591 16.202 11 15.869 11 15.327V9.172C11 8.631 11.591 8.297 12.055 8.576L17.164 11.654C17.612 11.924 17.612 12.575 17.164 12.846ZM21.75 2.75H6.25C4.182 2.75 2.5 4.432 2.5 6.5V18C2.5 20.068 4.182 21.75 6.25 21.75H21.75C23.818 21.75 25.5 20.068 25.5 18V6.5C25.5 4.432 23.818 2.75 21.75 2.75Z" fill="#B0B3B8"/>
</svg>
